<svg xmlns="http://www.w3.org/2000/svg" version="1.1" xmlns:xlink="http://www.w3.org/1999/xlink" xmlns:svgjs="http://svgjs.dev/svgjs" width="1500" height="939" viewBox="0 0 1500 939"><g transform="matrix(1,0,0,1,-0.9090909090909918,-1.5145161290323017)"><svg viewBox="0 0 396 248" data-background-color="#000000" preserveAspectRatio="xMidYMid meet" height="939" width="1500" xmlns="http://www.w3.org/2000/svg" xmlns:xlink="http://www.w3.org/1999/xlink"><g id="tight-bounds" transform="matrix(1,0,0,1,0.2400000000000091,0.4000000000000057)"><svg viewBox="0 0 395.52 247.2" height="247.2" width="395.52"><rect width="395.52" height="247.2" fill="url(#7337e1fa-fc96-480c-a8a1-1b1c68452580)" mask="url(#b81c3919-53f7-4482-9ce5-ad25c42c0751)" data-fill-palette-color="tertiary"></rect><g><svg></svg></g><g><svg viewBox="0 0 395.52 247.2" height="247.2" width="395.52"><g transform="matrix(1,0,0,1,75.54432,74.06266589461494)"><svg viewBox="0 0 244.43135999999998 99.07466821077011" height="99.07466821077011" width="244.43135999999998"><g><svg viewBox="0 0 244.43135999999998 99.07466821077011" height="99.07466821077011" width="244.43135999999998"><g><svg viewBox="0 0 244.43136 99.07466821077013" height="99.07466821077011" width="244.43135999999998"><g><svg viewBox="0 0 244.43136 99.07466821077013" height="99.07466821077013" width="244.43136"><g id="textblocktransform"><svg viewBox="0 0 244.43136 99.07466821077013" height="99.07466821077013" width="244.43136" id="textblock"><g><svg viewBox="0 0 244.43136 99.07466821077013" height="99.07466821077013" width="244.43136"><g transform="matrix(1,0,0,1,0,0)"><svg width="244.43136" viewBox="4.2 -35 86.35 35" height="99.07466821077013" data-palette-color="url(#7de15e5e-a1a8-4065-bfd7-d3ca45d7ff3a)"></svg></g></svg></g></svg></g></svg></g></svg></g></svg></g></svg></g><path d="M225.723 68.063L225.723 16.388 11.298 16.388 11.298 230.812 225.723 230.812 225.723 179.137 216.788 179.137 216.788 221.878 20.233 221.878 20.233 25.322 216.788 25.322 216.788 68.063Z" fill="url(#7337e1fa-fc96-480c-a8a1-1b1c68452580)" stroke="transparent" data-fill-palette-color="tertiary"></path></svg></g><defs></defs><mask id="b41aa6e4-e626-47b7-b4cd-76f807742386"><g id="SvgjsG1079"><svg viewBox="0 0 395.52 247.2" height="247.2" width="395.52"><g><svg></svg></g><g><svg viewBox="0 0 395.52 247.2" height="247.2" width="395.52"><g transform="matrix(1,0,0,1,75.54432,74.06266589461494)"><svg viewBox="0 0 244.43135999999998 99.07466821077011" height="99.07466821077011" width="244.43135999999998"><g><svg viewBox="0 0 244.43135999999998 99.07466821077011" height="99.07466821077011" width="244.43135999999998"><g><svg viewBox="0 0 244.43136 99.07466821077013" height="99.07466821077011" width="244.43135999999998"><g><svg viewBox="0 0 244.43136 99.07466821077013" height="99.07466821077013" width="244.43136"><g id="SvgjsG1078"><svg viewBox="0 0 244.43136 99.07466821077013" height="99.07466821077013" width="244.43136" id="SvgjsSvg1077"><g><svg viewBox="0 0 244.43136 99.07466821077013" height="99.07466821077013" width="244.43136"><g transform="matrix(1,0,0,1,0,0)"><svg width="244.43136" viewBox="4.2 -35 86.35 35" height="99.07466821077013" data-palette-color="url(#7de15e5e-a1a8-4065-bfd7-d3ca45d7ff3a)"><path d="M45.45-17.5L45.45-17.5Q45.45-13.85 44.3-10.68 43.15-7.5 41.03-5.1 38.9-2.7 35.93-1.35 32.95 0 29.35 0L29.35 0 11.7 0 11.7-5 29.35-5Q32.8-5 35.3-6.7 37.8-8.4 39.13-11.23 40.45-14.05 40.45-17.5L40.45-17.5Q40.45-20.95 39.13-23.8 37.8-26.65 35.3-28.33 32.8-30 29.35-30L29.35-30 9.2-30 9.2 0 4.2 0 4.2-35 29.35-35Q32.95-35 35.93-33.65 38.9-32.3 41.03-29.88 43.15-27.45 44.3-24.28 45.45-21.1 45.45-17.5ZM56.85-29.8L56.85 0 51.85 0 51.85-35 54.35-35Q58-35 62.27-33.6 66.55-32.2 70.85-29.65 75.15-27.1 78.97-23.58 82.8-20.05 85.55-15.75L85.55-15.75 85.55-35 90.55-35 90.55 0 85.55 0Q85.55-4.6 83.67-8.83 81.8-13.05 78.7-16.63 75.6-20.2 71.82-22.98 68.05-25.75 64.15-27.53 60.25-29.3 56.85-29.8L56.85-29.8Z" opacity="1" transform="matrix(1,0,0,1,0,0)" fill="white" class="wordmark-text-0" id="SvgjsPath1076"></path></svg></g></svg></g></svg></g></svg></g></svg></g></svg></g></svg></g><path d="M225.723 68.063L225.723 16.388 11.298 16.388 11.298 230.812 225.723 230.812 225.723 179.137 216.788 179.137 216.788 221.878 20.233 221.878 20.233 25.322 216.788 25.322 216.788 68.063Z" fill="black" stroke="transparent"></path></svg></g><defs><mask></mask></defs></svg><rect width="395.52" height="247.2" fill="black" stroke="none" visibility="hidden"></rect></g></mask><linearGradient x1="0" x2="1" y1="0.548" y2="0.55" id="7de15e5e-a1a8-4065-bfd7-d3ca45d7ff3a"><stop stop-color="#ff6cab" offset="0"></stop><stop stop-color="#7366ff" offset="1"></stop></linearGradient><rect width="395.52" height="247.2" fill="url(#7de15e5e-a1a8-4065-bfd7-d3ca45d7ff3a)" mask="url(#b41aa6e4-e626-47b7-b4cd-76f807742386)" data-fill-palette-color="primary"></rect><mask id="b81c3919-53f7-4482-9ce5-ad25c42c0751"><g id="SvgjsG1102"><svg viewBox="0 0 395.52 247.2" height="247.2" width="395.52"><g><svg></svg></g><g><svg viewBox="0 0 395.52 247.2" height="247.2" width="395.52"><g transform="matrix(1,0,0,1,75.54432,74.06266589461494)"><svg viewBox="0 0 244.43135999999998 99.07466821077011" height="99.07466821077011" width="244.43135999999998"><g><svg viewBox="0 0 244.43135999999998 99.07466821077011" height="99.07466821077011" width="244.43135999999998"><g><svg viewBox="0 0 244.43136 99.07466821077013" height="99.07466821077011" width="244.43135999999998"><g><svg viewBox="0 0 244.43136 99.07466821077013" height="99.07466821077013" width="244.43136"><g id="SvgjsG1101"><svg viewBox="0 0 244.43136 99.07466821077013" height="99.07466821077013" width="244.43136" id="SvgjsSvg1100"><g><svg viewBox="0 0 244.43136 99.07466821077013" height="99.07466821077013" width="244.43136"><g transform="matrix(1,0,0,1,0,0)"><svg width="244.43136" viewBox="4.2 -35 86.35 35" height="99.07466821077013" data-palette-color="url(#7de15e5e-a1a8-4065-bfd7-d3ca45d7ff3a)"></svg></g></svg></g></svg></g></svg></g></svg></g></svg></g></svg></g><path d="M225.723 68.063L225.723 16.388 11.298 16.388 11.298 230.812 225.723 230.812 225.723 179.137 216.788 179.137 216.788 221.878 20.233 221.878 20.233 25.322 216.788 25.322 216.788 68.063Z" fill="white" stroke="transparent"></path></svg></g><defs><mask></mask></defs><mask><g id="SvgjsG1099"><svg viewBox="0 0 395.52 247.2" height="247.2" width="395.52"><g><svg></svg></g><g><svg viewBox="0 0 395.52 247.2" height="247.2" width="395.52"><g transform="matrix(1,0,0,1,75.54432,74.06266589461494)"><svg viewBox="0 0 244.43135999999998 99.07466821077011" height="99.07466821077011" width="244.43135999999998"><g><svg viewBox="0 0 244.43135999999998 99.07466821077011" height="99.07466821077011" width="244.43135999999998"><g><svg viewBox="0 0 244.43136 99.07466821077013" height="99.07466821077011" width="244.43135999999998"><g><svg viewBox="0 0 244.43136 99.07466821077013" height="99.07466821077013" width="244.43136"><g id="SvgjsG1098"><svg viewBox="0 0 244.43136 99.07466821077013" height="99.07466821077013" width="244.43136" id="SvgjsSvg1097"><g><svg viewBox="0 0 244.43136 99.07466821077013" height="99.07466821077013" width="244.43136"><g transform="matrix(1,0,0,1,0,0)"><svg width="244.43136" viewBox="4.2 -35 86.35 35" height="99.07466821077013" data-palette-color="url(#7de15e5e-a1a8-4065-bfd7-d3ca45d7ff3a)"><path d="M45.45-17.5L45.45-17.5Q45.45-13.85 44.3-10.68 43.15-7.5 41.03-5.1 38.9-2.7 35.93-1.35 32.95 0 29.35 0L29.35 0 11.7 0 11.7-5 29.35-5Q32.8-5 35.3-6.7 37.8-8.4 39.13-11.23 40.45-14.05 40.45-17.5L40.45-17.5Q40.45-20.95 39.13-23.8 37.8-26.65 35.3-28.33 32.8-30 29.35-30L29.35-30 9.2-30 9.2 0 4.2 0 4.2-35 29.35-35Q32.95-35 35.93-33.65 38.9-32.3 41.03-29.88 43.15-27.45 44.3-24.28 45.45-21.1 45.45-17.5ZM56.85-29.8L56.85 0 51.85 0 51.85-35 54.35-35Q58-35 62.27-33.6 66.55-32.2 70.85-29.65 75.15-27.1 78.97-23.58 82.8-20.05 85.55-15.75L85.55-15.75 85.55-35 90.55-35 90.55 0 85.55 0Q85.55-4.6 83.67-8.83 81.8-13.05 78.7-16.63 75.6-20.2 71.82-22.98 68.05-25.75 64.15-27.53 60.25-29.3 56.85-29.8L56.85-29.8Z" opacity="1" transform="matrix(1,0,0,1,0,0)" fill="black" class="wordmark-text-0" id="SvgjsPath1096"></path></svg></g></svg></g></svg></g></svg></g></svg></g></svg></g></svg></g><path d="M225.723 68.063L225.723 16.388 11.298 16.388 11.298 230.812 225.723 230.812 225.723 179.137 216.788 179.137 216.788 221.878 20.233 221.878 20.233 25.322 216.788 25.322 216.788 68.063Z" fill="black" stroke="transparent"></path></svg></g><defs><mask></mask></defs></svg><rect width="395.52" height="247.2" fill="black" stroke="none" visibility="hidden"></rect></g></mask></svg><rect width="395.52" height="247.2" fill="black" stroke="none" visibility="hidden"></rect></g></mask><linearGradient x1="0" x2="1" y1="0.548" y2="0.55" id="7337e1fa-fc96-480c-a8a1-1b1c68452580"><stop stop-color="#ff6cab" offset="0"></stop><stop stop-color="#7366ff" offset="1"></stop></linearGradient></svg><rect width="395.52" height="247.2" fill="none" stroke="none" visibility="hidden"></rect></g></svg></g></svg>